<svg width="26" height="31" viewBox="0 0 26 31" fill="none" xmlns="http://www.w3.org/2000/svg">
    <path d="M21.738 16.3818C21.7242 13.8418 22.8709 11.9247 25.1918 10.5128C23.8932 8.65113 21.9315 7.62683 19.3411 7.42613C16.8889 7.23234 14.2088 8.85875 13.2279 8.85875C12.1918 8.85875 9.81562 7.49534 7.95058 7.49534C4.09617 7.55762 0 10.5751 0 16.714C0 18.5273 0.331562 20.4005 0.994686 22.3337C1.87885 24.8737 5.07014 31.1025 8.39957 30.9987C10.1403 30.9572 11.3698 29.7599 13.6355 29.7599C15.8321 29.7599 16.9718 30.9987 18.9129 30.9987C22.2699 30.9503 25.1573 25.289 26 22.7421C21.4963 20.6174 21.738 16.5133 21.738 16.3818ZM17.8284 5.01765C19.7141 2.77528 19.5414 0.733616 19.4862 0C17.8215 0.0968926 15.8943 1.13503 14.796 2.41539C13.5871 3.78573 12.8757 5.48135 13.0276 7.39152C14.8305 7.52994 16.4745 6.60254 17.8284 5.01765Z" fill="black"/>
</svg>
    