<svg width="31" height="31" viewBox="0 0 31 31" fill="none" xmlns="http://www.w3.org/2000/svg">
    <path d="M30.0056 12.559L28.7975 12.5388L28.7985 12.4765L15.3004 12.25L15.1998 18.2491L23.6758 18.3914C22.3807 21.8629 19.0158 24.314 15.0991 24.2483C10.1295 24.1649 6.16798 20.0681 6.25138 15.0986C6.33477 10.129 10.4316 6.16744 15.4011 6.25084C17.695 6.28933 19.7675 7.18973 21.3328 8.62995L25.6461 4.45899C23.0094 1.91764 19.4522 0.317978 15.5018 0.251684C7.21921 0.112692 0.391215 6.7153 0.252222 14.9979C0.11323 23.2805 6.71584 30.1085 14.9984 30.2475C23.281 30.3865 30.109 23.7838 30.248 15.5013C30.2649 14.4956 30.1779 13.5123 30.0056 12.559Z" fill="#FFC107"/>
    <path d="M2.09886 8.04617L6.96577 11.7426C8.35448 8.46394 11.6226 6.18746 15.4014 6.25087C17.6953 6.28937 19.7677 7.18977 21.333 8.62998L25.6464 4.45902C23.0096 1.91767 19.4525 0.318011 15.502 0.251718C9.74134 0.155046 4.69097 3.3235 2.09886 8.04617Z" fill="#FF3D00"/>
    <path d="M14.9984 30.2473C18.8723 30.3123 22.4172 28.8888 25.119 26.5226L20.5431 22.5168C19.0182 23.6321 17.135 24.2823 15.099 24.2482C11.1981 24.1827 7.92755 21.6397 6.73798 18.1475L1.78393 21.8336C4.18457 26.7324 9.16944 30.1495 14.9984 30.2473Z" fill="#4CAF50"/>
    <path d="M30.0054 12.559L28.7973 12.5388L28.7984 12.4765L15.3003 12.25L15.1996 18.2492L23.6757 18.3914C23.0536 20.0589 21.9502 21.4874 20.5408 22.5176C20.5415 22.5169 20.5423 22.5169 20.543 22.5162L25.119 26.522C24.7855 26.815 30.122 23.0002 30.2478 15.5013C30.2647 14.4957 30.1777 13.5123 30.0054 12.559Z" fill="#1976D2"/>
</svg>
    