<svg width="46" height="35" viewBox="0 0 46 35" fill="none" xmlns="http://www.w3.org/2000/svg">
<path d="M7.36236 32.293C9.67905 31.2988 11.7012 29.7877 13.4289 27.7596C15.1566 25.7316 16.1972 23.6637 16.5506 21.5561C16.7469 20.4427 16.8451 19.4883 16.8451 18.693C16.8451 17.7784 16.7469 17.0228 16.5506 16.4263C14.7051 18.3749 12.3688 19.3491 9.54161 19.3491C6.71447 19.3491 4.41741 18.514 2.65045 16.8439C0.883482 15.1737 -1.07567e-06 12.8673 -1.0789e-06 9.92456C-1.08196e-06 7.14094 0.94238 4.87427 2.82714 3.12456C4.67264 1.37486 7.02859 0.500003 9.895 0.500003C13.8216 0.500003 16.688 1.93158 18.4942 4.79474C19.3188 6.02749 19.9667 7.5386 20.4379 9.32807C20.9091 11.1573 21.1447 13.0263 21.1447 14.9351C21.1447 19.1105 20.0845 22.9281 17.9641 26.3877C15.8438 29.8474 12.6829 32.5515 8.48144 34.5L7.36236 32.293ZM32.2177 32.293C34.5344 31.2988 36.5566 29.7877 38.2843 27.7596C40.012 25.7316 41.0525 23.6637 41.4059 21.5561C41.6022 20.4427 41.7004 19.4883 41.7004 18.693C41.7004 17.7784 41.6022 17.0228 41.4059 16.4263C39.5604 18.3749 37.2241 19.3491 34.3969 19.3491C31.5698 19.3491 29.2727 18.514 27.5058 16.8439C25.7388 15.1737 24.8553 12.8673 24.8553 9.92456C24.8553 7.14094 25.7977 4.87427 27.6825 3.12456C29.528 1.37486 31.8839 0.500003 34.7503 0.500003C38.6769 0.500003 41.5433 1.93158 43.3496 4.79474C44.1741 6.02749 44.822 7.5386 45.2932 9.32807C45.7644 11.1573 46 13.0263 46 14.9351C46 19.1105 44.9398 22.9281 42.8195 26.3877C40.6991 29.8474 37.5382 32.5515 33.3367 34.5L32.2177 32.293Z" fill="#CD5C08"/>
</svg>
